<svg xmlns="http://www.w3.org/2000/svg" viewBox="0 0 677.096 293.265">
  <g>
    <path d="M672.8,71.66a43.592,43.592,0,0,1,4.238,21.193C675.5,165.68,522.52,250.453,336.405,281.665c-171.857,28.9-313.273,1.926-332.155-60.112C29.682,279.738,167.631,304.4,334.479,276.27c186.114-31.212,339.09-115.984,340.632-188.812A54.057,54.057,0,0,0,672.8,71.66Z" fill-rule="evenodd"/>
    <path d="M340.644,11.548c185.729-31.212,336.008,3.083,334.467,75.91S520.593,245.058,334.479,276.27C148.749,307.482-1.53,273.573.012,200.36,1.553,127.533,154.529,42.76,340.644,11.548Z" fill="#f7d524" fill-rule="evenodd"/>
    <path d="M288.239,15.787,264.348,58.944l-1.541-2.7,22.734-40.459Z" fill-rule="evenodd"/>
    <path d="M287.083,13.475,262.807,56.246,242,13.475Z" fill="#2eb8ca" fill-rule="evenodd"/>
    <path d="M243.926,75.513h28.9l-19.652,151.05h10.4l-.771,7.706H223.5l.771-7.706h10.4L253.559,83.22H242.77ZM508.263,177.24c-3.854,18.881-9.634,33.139-16.955,43.928-8.092,11.56-18.11,17.34-29.67,17.34q-19.074,0-28.9-24.276c-6.551-16.184-8.092-36.606-4.624-61.653C431.2,127.918,438.133,107.5,448.536,91.7c10.79-16.184,22.35-23.891,35.066-23.891,11.945,0,20.422,5.78,25.817,17.726q7.514,17.918,3.468,49.707l-.771,4.624H450.078c0,1.156-.386,3.468-.771,6.551s-.771,5.394-1.156,7.321c-3.083,25.047-3.468,43.928-.385,56.644,2.7,12.716,8.862,19.266,17.725,19.266,8.477,0,16.184-5.394,23.12-15.8,6.165-8.863,10.789-21.194,13.872-36.607C503.253,171.075,509.419,171.846,508.263,177.24ZM452,131.771l40.845.386c.386-2.312.771-4.624,1.156-6.551a29.771,29.771,0,0,1,.771-5.78c1.927-15.413,1.927-26.588,0-34.294-2.312-7.322-6.165-11.175-12.33-11.175-6.936,0-13.1,5.009-18.111,15.028C458.94,99.4,454.7,113.661,452,131.771ZM228.9,177.24c-3.468,18.881-9.248,33.139-16.57,43.928-8.476,11.56-18.11,17.34-29.67,17.34q-19.074,0-28.9-24.276c-6.551-16.184-8.092-36.606-4.624-61.653,3.082-24.661,10.018-45.084,20.422-60.882,10.789-16.184,22.349-23.891,35.065-23.891,11.945,0,20.423,5.78,25.432,17.726q8.091,17.918,3.468,49.707l-.385,4.624H171.1c0,1.156-.385,3.468-.77,6.551s-.771,5.394-1.156,7.321c-3.083,25.047-3.468,43.928-.385,56.644,2.7,12.716,8.862,19.266,17.725,19.266,8.477,0,16.183-5.394,23.12-15.8,6.165-8.863,10.789-21.194,13.871-36.607C224.274,171.075,230.054,171.846,228.9,177.24Zm-55.873-45.469,40.845.386c.385-2.312.771-4.624,1.156-6.551a29.771,29.771,0,0,1,.771-5.78c1.927-15.413,1.927-26.588,0-34.294-2.312-7.322-6.165-11.175-12.331-11.175q-10.4,0-18.5,15.028C179.961,99.4,175.722,113.661,173.025,131.771ZM51.646,157.2v1.927c2.7,50.863,11.175,75.91,25.817,75.139,9.633-.77,18.111-5.78,25.817-15.413,7.322-9.633,11.946-21.579,13.872-35.45,1.156-9.634.386-17.34-2.312-23.891-3.082-6.165-10.4-13.486-21.578-21.964-17.34-11.945-28.129-22.349-31.983-31.212-3.853-8.477-5.394-19.651-3.468-32.753C60.123,55.861,66.289,41.6,76.693,30.044s23.119-17.725,37.762-18.5a42.093,42.093,0,0,1,16.954,2.312,62.9,62.9,0,0,1,16.57,8.863c-2.7,20.037-5.4,40.459-7.707,60.5-.385,5.009-4.239,4.624-4.239.385-.385-1.541-.385-3.853-.77-6.551-2.312-40.074-10.4-59.341-24.276-58.57-9.248.385-17.725,4.624-24.661,11.945A48.265,48.265,0,0,0,74,58.558c-2.312,16.955,6.936,32.368,27.744,47.011a8.4,8.4,0,0,1,1.927,1.156c15.8,11.174,25.817,20.808,29.67,29.67s5.009,20.037,3.468,33.909c-2.7,19.267-9.633,35.836-21.193,49.323C103.666,233.5,90.564,240.82,75.151,241.59c-8.092.386-15.8-.77-22.349-4.238A27.843,27.843,0,0,1,38.93,223.865c2.7-21.964,5.78-44.313,8.477-66.662C47.793,153.735,51.646,153.735,51.646,157.2Zm556.8-77.066c-7.707,0-13.872,6.165-18.882,18.881-5.009,12.331-9.248,31.6-12.715,58.185-3.083,24.276-3.468,42.772-1.542,54.332,1.927,11.945,6.551,17.725,13.872,17.725,6.936,0,13.1-5.78,18.111-18.111,5.009-11.945,8.862-30.441,12.33-55.487,3.083-26.973,4.239-46.24,2.312-57.8C620.009,85.917,615.77,80.137,608.449,80.137ZM624.632,25.42l.771-7.707h29.285L628.1,226.177H638.89l-1.156,8.092H610.375l4.239-32.368q-5.2,18.5-12.716,27.744c-5.009,5.78-10.789,8.863-17.34,8.863-11.174,0-19.266-7.321-24.661-22.735-5.009-15.413-5.78-35.065-2.7-59.726,3.082-24.276,9.248-44.313,18.5-60.5,9.633-16.184,19.651-24.276,30.826-24.276a15.387,15.387,0,0,1,13.872,7.707c3.468,5.009,5.394,12.716,6.165,23.12l9.633-76.681Zm-93.249-7.707H559.9l-26.588,208.85H544.1l-.77,7.706H503.639l1.156-7.706h10.018L540.63,25.42h-10.4ZM417.325,234.269H369.544l.77-8.092h12.331L402.3,80.908h-9.633L393.82,73.2h9.633l1.156-9.248q4.046-26.588,12.716-40.46c6.165-8.862,13.872-13.486,23.5-13.486a24.565,24.565,0,0,1,9.248,1.541,29.1,29.1,0,0,1,8.862,5.009c-1.541,13.1-3.468,26.2-5.009,39.3-.385,4.624-6.165,4.239-6.551,0-1.156-17.34-2.7-28.129-3.853-32.368-1.156-4.624-2.7-6.936-5.009-6.936-2.7,0-5.009,2.312-6.551,6.551-1.926,4.239-3.468,13.487-5.394,27.744L423.49,73.2h23.12l-1.156,7.707h-23.12L402.682,226.177h15.8Zm-147.2,0,1.156-7.706h10.4L300.955,83.22H290.166l1.155-7.707h27.744L315.6,102.1a57.616,57.616,0,0,1,13.487-22.735c5.78-5.394,11.945-8.477,18.5-8.477,10.018,0,16.569,4.239,19.652,12.331,3.082,8.477,3.082,25.046-.386,49.707l-12.33,93.636h10.4l-1.156,7.706H324.845l.771-7.706h10.789l13.1-96.333c2.7-21.579,3.468-35.45,2.312-41.23-1.542-6.166-5.01-8.863-10.405-8.863-6.55,0-12.715,5.395-18.11,15.8-5.395,10.789-9.248,25.046-11.945,43.157l-11.56,87.47h10.4l-.771,7.706Z" fill-rule="evenodd"/>
    <path d="M242,72.816h28.9L251.247,223.865h10.4l-.77,7.707h-39.3l.77-7.707h10.4l18.5-143.343h-10.4ZM505.951,174.543c-3.468,18.881-9.248,33.524-16.57,43.928-8.477,11.56-18.11,17.339-29.67,17.339q-19.074,0-28.9-24.275c-6.55-16.184-8.092-36.607-5.009-61.653C429.27,125.221,436.206,104.8,446.61,89c10.789-16.184,22.349-23.891,35.065-23.891,11.945,0,20.422,5.78,25.432,17.725q8.091,17.919,3.468,49.708l-.386,4.624H448.151c0,1.156-.385,3.468-.771,6.551s-.77,5.394-1.156,7.321c-3.082,25.046-3.468,43.927-.385,56.643,2.7,12.716,8.863,19.267,17.725,19.267,8.478,0,16.184-5.4,23.12-15.413q9.247-13.872,13.872-36.992C501.327,168.378,507.107,169.148,505.951,174.543Zm-55.873-45.469,40.845.385c.385-2.312.77-4.624,1.156-6.55a29.759,29.759,0,0,1,.77-5.78c1.927-15.414,1.927-26.588,0-34.295-2.312-7.321-6.165-11.174-12.33-11.174q-10.4,0-18.5,15.028C457.014,96.706,452.775,110.963,450.078,129.074ZM226.971,174.543c-3.853,18.881-9.247,33.524-16.569,43.928-8.477,11.56-18.11,17.339-29.67,17.339q-19.651,0-28.9-24.275c-6.551-16.184-8.092-36.607-5.01-61.653C150.291,125.221,157.227,104.8,167.631,89,178.42,72.816,189.98,65.109,202.7,65.109c11.946,0,20.423,5.78,25.432,17.725s6.551,28.515,3.468,49.708l-.385,4.624H169.172c0,1.156-.385,3.468-.771,6.551-.77,3.082-.77,5.394-1.156,7.321-3.468,25.046-3.468,43.927-.385,56.643,2.7,12.716,8.477,19.267,17.725,19.267,8.477,0,16.184-5.4,23.12-15.413q8.67-13.872,13.872-36.992C222.347,168.378,228.127,169.148,226.971,174.543ZM171.1,129.074l40.846.385a43.072,43.072,0,0,0,.77-6.55,29.7,29.7,0,0,0,.771-5.78c2.312-15.414,2.312-26.588,0-34.295-1.927-7.321-5.78-11.174-11.945-11.174q-10.4,0-18.5,15.028C177.649,96.706,173.8,110.963,171.1,129.074ZM49.719,154.506v1.926q4.047,76.3,25.432,75.14c10.019-.385,18.5-5.78,26.2-15.413,7.321-9.634,11.945-21.579,13.872-35.451,1.156-9.633.385-17.34-2.7-23.89-2.7-6.166-10.018-13.487-21.578-21.579-16.955-12.33-27.744-22.734-31.6-31.6-4.239-8.477-5.4-19.652-3.468-32.753C58.2,53.164,64.362,38.907,74.766,27.347s23.12-17.726,37.762-18.5a62.073,62.073,0,0,1,16.955,2.312,62.9,62.9,0,0,1,16.569,8.862c-2.7,20.423-5.395,40.46-7.707,60.883-.385,4.624-4.238,4.238-4.624,0a44.586,44.586,0,0,0-.385-6.551c-2.312-39.689-10.4-59.341-24.661-58.57-9.248.385-17.34,4.624-24.276,12.33Q73.995,39.1,71.683,55.861c-1.926,16.955,7.322,32.368,27.744,47.01,1.156.386,1.927,1.156,2.312,1.156,15.8,11.175,25.817,20.808,29.67,29.671s5.01,20.422,3.468,33.909c-2.7,19.267-9.633,35.836-21.578,49.708-11.56,13.486-25.047,20.808-40.074,21.578-8.478.385-15.8-.77-22.35-4.238A28.807,28.807,0,0,1,37,221.553c2.7-22.349,5.4-44.7,8.478-67.047C45.866,151.038,49.334,151.038,49.719,154.506ZM606.137,77.44c-7.322,0-13.487,6.165-18.5,18.881-5.01,12.33-9.248,31.982-12.716,58.185-3.083,24.661-3.853,42.771-1.541,54.717,1.926,11.56,6.55,17.725,13.871,17.725,6.936,0,13.1-6.165,18.111-18.5,5.009-11.945,8.863-30.441,11.945-55.488,3.468-26.973,4.239-46.239,2.7-57.8C618.082,83.22,613.458,77.44,606.137,77.44Zm16.184-54.717,1.155-7.707h28.9l-26.2,208.464h10.789l-1.156,8.092H608.449l4.238-32.368c-3.468,12.716-7.706,21.579-12.716,27.744s-10.789,8.862-17.34,8.862c-11.174,0-19.266-7.321-24.661-22.734-5.009-15.028-6.165-35.065-3.082-59.726,3.468-24.276,9.633-44.313,18.881-60.5C583.4,76.669,593.421,68.577,604.6,68.577c5.78,0,10.4,2.7,13.872,7.707S623.862,89,624.632,99.4l9.634-76.68Zm-92.865-7.707H557.97L531.383,223.865h10.789l-.771,7.707H501.712l1.156-7.707h10.019L538.7,22.723H528.3ZM415.4,231.572H367.232l1.156-8.092h12.33L400.37,78.21h-9.633l1.156-7.706h9.633l1.156-9.248Q406.728,34.668,415.4,20.8C421.563,11.933,429.27,7.31,438.9,7.31a25.9,25.9,0,0,1,9.248,1.541,29.106,29.106,0,0,1,8.863,5.009c-1.542,13.1-3.468,26.2-5.395,39.3-.385,4.624-5.78,4.238-6.165,0-1.541-16.955-2.7-28.129-3.854-32.368-1.155-4.624-2.7-6.936-5.009-6.936-2.7,0-5.009,2.312-6.55,6.551-1.927,4.238-3.468,13.486-5.395,27.744L421.563,70.5h23.12l-1.156,7.706h-23.12L400.37,223.48h15.8Zm-147.2,0,1.157-7.707h10.4L299.028,80.522H288.239l1.156-7.706h27.744L313.671,99.4c3.082-9.247,7.706-16.954,13.486-22.349,5.78-5.78,11.946-8.862,18.5-8.862,10.019,0,16.569,4.238,19.652,12.33,3.083,8.478,2.7,25.047-.385,49.708l-12.331,93.635h10.4l-1.156,7.707H322.919l.77-7.707h10.79l13.1-96.332c2.7-21.579,3.468-35.451,2.312-41.231-1.541-6.165-5.009-8.862-10.4-8.862-6.551,0-12.716,5.394-18.111,15.8-5.394,10.789-9.633,25.047-11.945,43.543l-11.56,87.084h10.4l-.771,7.707Z" fill="#ec1d2f" fill-rule="evenodd"/>
  </g>
</svg>
